<?xml version="1.0" encoding="UTF-8" standalone="no"?>
<!-- Created with Inkscape (http://www.inkscape.org/) -->

<svg
   xmlns:dc="http://purl.org/dc/elements/1.1/"
   xmlns:cc="http://creativecommons.org/ns#"
   xmlns:rdf="http://www.w3.org/1999/02/22-rdf-syntax-ns#"
   xmlns:svg="http://www.w3.org/2000/svg"
   xmlns="http://www.w3.org/2000/svg"
   xmlns:inkscape="http://www.inkscape.org/namespaces/inkscape"
   version="1.1"
   width="400"
   height="306.3212"
   id="svg2">
  <metadata
     id="metadata7">
    <rdf:RDF>
      <cc:Work
         rdf:about="">
        <dc:format>image/svg+xml</dc:format>
        <dc:type
           rdf:resource="http://purl.org/dc/dcmitype/StillImage" />
        <dc:title></dc:title>
      </cc:Work>
    </rdf:RDF>
  </metadata>
  <g
     transform="translate(-156.41026,-384.50254)"
     id="layer1">
    <path
       d="m 406.41022,540.82372 c 0,27.61424 -22.38576,50 -49.99993,50 -27.61427,0 -50.00002,-22.38576 -50.00002,-50 0,-27.61424 22.38575,-50 50.00002,-50 27.61417,0 49.99993,22.38576 49.99993,50 z M 156.41026,430.82371 c 7.69073,-18.45485 23.03455,-33.5802 41.5978,-41.0055 18.56323,-7.42531 40.10556,-7.05441 58.40219,1.00551 18.11303,7.97903 32.24725,22.6271 47.32237,35.45234 7.53757,6.41262 15.46061,12.46766 24.25299,17.00974 8.7924,4.54207 18.52836,7.53792 28.42468,7.53792 9.89623,0 19.6322,-2.99585 28.42455,-7.53792 8.79247,-4.54208 16.7155,-10.59712 24.25297,-17.00974 15.07517,-12.82524 29.20948,-27.47331 47.32246,-35.45234 18.29653,-8.05992 39.83902,-8.43082 58.40216,-1.00551 18.56337,7.4253 33.90707,22.55065 41.59783,41.0055 l 0,240.00003 c -7.69076,-18.45486 -23.03446,-33.58022 -41.59783,-41.00551 -18.56314,-7.4253 -40.10563,-7.05441 -58.40216,1.00551 -18.11298,7.97902 -32.24729,22.6271 -47.32246,35.45235 -7.53747,6.41262 -15.4605,12.46764 -24.25297,17.00973 -8.79235,4.54207 -18.52832,7.53792 -28.42455,7.53792 -9.89632,0 -19.63228,-2.99585 -28.42468,-7.53792 -8.79238,-4.54209 -16.71542,-10.59711 -24.25299,-17.00973 -15.07512,-12.82525 -29.20934,-27.47333 -47.32237,-35.45235 -18.29663,-8.05992 -39.83896,-8.43081 -58.40219,-1.00551 -18.56325,7.42529 -33.90707,22.55065 -41.5978,41.00551 l 0,-240.00003"
       id="path3043"
       style="fill:#ffffff;fill-opacity:0.8;fill-rule:evenodd;stroke:none" />
  </g>
</svg>
